<svg xmlns="http://www.w3.org/2000/svg" version="1.1" xmlns:xlink="http://www.w3.org/1999/xlink" xmlns:svgjs="http://svgjs.dev/svgjs" width="100%" height="100%" viewBox="0 0 1000 600"><rect width="1000" height="600" x="0" y="0" fill="white"/><g><circle r="166.66666666666666" cx="405.1574350992838" cy="427.37964276009086" fill="#5e1fff" transform="matrix(0.5241291917968337,0,0,0.5241291917968336,0,75.99781133235464)"/><path d="M355.3378825989383 502.3796580738322L355.3378825989383 502.3796580738322Q331.92781724601775 502.3796580738322 315.92118506095835 482.80299092245247Q299.914552875899 463.19706118938154 299.914552875899 434.7538317855831L299.914552875899 434.7538317855831Q299.914552875899 399.98988473649615 319.1985942103672 376.1701432398995Q338.4826355448355 352.3796643249941 366.48692622326666 352.3796643249941L366.48692622326666 352.3796643249941Q377.4603943574482 352.3796643249941 386.8244204986164 354.5743579518304Q396.18844663978456 356.79831416035785 400.19742033147224 359.11005811395876L400.19742033147224 359.11005811395876L404.0015559513218 361.4218020675596L389.662890922658 390.7136463404014Q384.83456494361815 386.49983457687574 375.9680026911995 382.8127492837907Q367.13070302047197 379.1256639907058 359.96137050614004 379.1256639907058L359.96137050614004 379.1256639907058Q345.4178674056382 379.1256639907058 336.66835547998414 391.1525850657687Q327.9481061360213 403.15024355914045 327.9481061360213 425.38980564441493Q327.9481061360213 447.60010514799825 336.99024387858685 461.8217198498975Q346.0616442028435 476.04333455179665 361.6586002442268 476.04333455179665L361.6586002442268 476.04333455179665Q371.7541909276738 476.04333455179665 379.97697638288713 469.7226169065081Q388.19976183810047 463.40189926121957 391.56495873258274 452.8673698524054L391.56495873258274 452.8673698524054L409.06398258389083 462.99222311754346Q402.099488141397 481.5154373280418 387.7608231127332 491.9621789917826Q373.4514206657605 502.3796580738322 355.3378825989383 502.3796580738322ZM412.42917947837316 480.90092311252766L428.84548780710867 458.13463455681244Q446.7541878020929 476.04333455179665 464.6628877970771 476.04333455179665L464.6628877970771 476.04333455179665Q473.93912619317183 476.04333455179665 479.5282792961816 471.74173504319754Q485.11743239919133 467.41087295290725 485.11743239919133 460.563428837178Q485.11743239919133 453.7159847214487 478.35777602853557 448.9754464874823Q471.6273822395709 444.2349082535159 462.0292554448735 440.6648732871955Q452.4603912318672 437.06557573918406 442.97931476393444 432.5298755770557Q433.49823829600166 428.02343799661844 426.7385819253458 419.5958144695671Q420.0081881363812 411.1681909425157 420.0081881363812 399.1412698674528L420.0081881363812 399.1412698674528Q420.0081881363812 380.1791169315872 435.8099822496025 366.39644095505525Q451.6117763628239 352.58450239683214 473.32461197765764 352.58450239683214L473.32461197765764 352.58450239683214Q483.2153645892665 352.58450239683214 492.4916029853613 354.69140827859496Q501.76784138145604 356.79831416035785 510.4003029803455 360.8072878520455L510.4003029803455 360.8072878520455L496.0616379516817 391.5622612094448Q490.17985903176043 386.938773302243 479.93795543985766 383.0175873556288Q469.7253144296461 379.1256639907058 462.0292554448735 379.1256639907058Q454.362459041792 379.1256639907058 449.62192080782563 382.8127492837907Q444.88138257385924 386.49983457687574 444.88138257385924 392.6157141503262Q444.88138257385924 398.73159372377665 451.6117763628239 403.4721319577431Q458.34217015178854 408.2126701917095 467.9402969464859 411.78270515802984Q477.53842374118335 415.3820027060414 487.1072879541896 419.68360221464053Q496.70541474888694 424.01446430493087 503.4358085378516 432.44208783198224Q510.19546490850746 440.8697113590336 510.19546490850746 452.8673698524054L510.19546490850746 452.8673698524054Q510.19546490850746 472.6781376573143 494.3936707952861 487.54352915641886Q478.59187668206476 502.3796580738322 457.5228178644363 502.3796580738322L457.5228178644363 502.3796580738322Q441.72102375121494 502.3796580738322 429.489264604314 494.8006494158242L429.489264604314 494.8006494158242Q418.74989712366175 488.2750936986976 414.33124728829796 483.2126670661286L414.33124728829796 483.2126670661286L412.42917947837316 480.90092311252766Z " fill="black" transform="matrix(0.5241291917968337,0,0,0.5241291917968336,0,75.99781133235464)"/><path d="M705.4228194189907 502.3796621378554L705.4228194189907 502.3796621378554Q684.1913970856392 502.3796621378554 669.6744120652102 484.62488521159025Q655.1574270447811 466.84356900740835 655.1574270447811 441.0473908723863L655.1574270447811 441.0473908723863Q655.1574270447811 409.51872870735934 672.6468111918794 387.91575648317416Q690.1361953389776 366.33932353690574 715.5342843052493 366.33932353690574L715.5342843052493 366.33932353690574Q725.4865135240079 366.33932353690574 733.9790824573485 368.32976938065747Q742.4716513906891 370.34675450232584 746.1075324652755 372.4433574577443L746.1075324652755 372.4433574577443L749.557638594445 374.53996041316276L736.5533924152674 401.1057776077688Q732.1744115590136 397.2841215877655 724.1330103502567 393.9401725702627Q716.1181484194165 390.59622355275985 709.6160253298276 390.59622355275985L709.6160253298276 390.59622355275985Q696.4260042052331 390.59622355275985 688.4907601081429 401.50386677651915Q680.5820552889695 412.3849707223618 680.5820552889695 432.5548219390457Q680.5820552889695 452.6981338778129 688.7826921652265 465.5962229453239Q697.0098683194002 478.494312012835 711.1553034489957 478.494312012835L711.1553034489957 478.494312012835Q720.3113543302535 478.494312012835 727.7688914248431 472.7618279828301Q735.2264285194328 467.0293439528252 738.2784454798522 457.47520390281704L738.2784454798522 457.47520390281704L754.1489336740324 466.6577940619915Q747.8325855298604 483.4571569832559 734.8283393506825 492.93167919951395Q721.8506324494215 502.3796621378554 705.4228194189907 502.3796621378554ZM763.7030737240406 407.97945058819136L763.7030737240406 407.97945058819136L786.818784789477 403.01660561777044Q788.5438378540617 417.74590486153306 789.1011626903123 430.90938670821095L789.1011626903123 430.90938670821095Q806.4843897257438 403.97201962277126 821.7710138057569 403.97201962277126L821.7710138057569 403.97201962277126L819.6744108503384 433.7756287232134Q808.607531959079 433.7756287232134 802.1850267032402 435.79261384488177Q795.789060725318 437.8095989665502 789.1011626903123 443.72785794197193L789.1011626903123 443.72785794197193L789.1011626903123 450.60153092239443L791.1977656457308 495.50598915743285L765.6139017340422 500.28305918243694L767.8962796348775 453.8393228282306Q767.1266405752934 428.255458916542 763.7030737240406 407.97945058819136ZM833.8198459799338 407.79367564277453L859.430249169539 403.01660561777044L857.1213319907871 450.60153092239443L859.2444742241223 495.50598915743285L833.634071034517 500.28305918243694L835.9164489353523 453.8393228282306L833.8198459799338 407.79367564277453ZM832.4928820840994 375.01766741566314Q832.4928820840994 368.621701437741 837.4557270545203 363.5526993556533Q842.4185720249412 358.51023655148236 848.9206951145301 358.51023655148236Q855.422818204119 358.51023655148236 858.8463850553719 362.0399605144021Q862.2964911845415 365.56968447732174 862.2964911845415 372.6291324031611Q862.2964911845415 379.71511960691714 857.4132640478707 384.78412168900485Q852.5565761891165 389.8265844931758 846.1340709332777 389.8265844931758Q839.7381049553555 389.8265844931758 836.1022238807692 385.6333785823389Q832.4928820840994 381.44017267150195 832.4928820840994 375.01766741566314ZM876.8134762049707 407.79367564277453L887.9068943741468 407.79367564277453L887.9068943741468 386.96034247817335L913.7030725091689 381.9974975077524L911.208380385 407.79367564277453L934.3240914504364 407.79367564277453L932.2274884950181 423.4783888915379L910.438741325416 423.4783888915379L909.4833273204152 463.3934628782387Q909.4833273204152 472.39027809199644 911.208380385 475.3361379407489Q912.9334334495849 478.3085370674182 917.5247285291721 478.3085370674182Q922.0894843308427 478.3085370674182 929.7327963708493 476.2119341119997L929.7327963708493 476.2119341119997L930.9005245991835 489.77350512742794Q918.2678283108394 500.28305918243694 908.7136882608312 500.28305918243694Q899.1595482108231 500.28305918243694 893.0555142899844 493.30322909034766Q886.951480369146 486.3233989982583 886.951480369146 475.07074516158207L886.951480369146 475.07074516158207L888.0926693195637 453.65354788281377L887.9068943741468 423.4783888915379L874.7168732495521 423.4783888915379L876.8134762049707 407.79367564277453ZM948.283751634615 407.79367564277453L973.8941548242203 403.01660561777044L971.5852376454683 450.60153092239443L973.6818406008869 495.50598915743285L948.0979766891983 500.28305918243694L950.3803545900336 453.8393228282306L948.283751634615 407.79367564277453ZM946.9302484608639 375.01766741566314Q946.9302484608639 368.621701437741 951.9196327092014 363.5526993556533Q956.8824776796224 358.51023655148236 963.3846007692113 358.51023655148236Q969.8601845808836 358.51023655148236 973.3102907100532 362.0399605144021Q976.7603968392228 365.56968447732174 976.7603968392228 372.6291324031611Q976.7603968392228 379.71511960691714 971.8771697025519 384.78412168900485Q966.9939425658811 389.8265844931758 960.5979765879589 389.8265844931758Q954.2020106100368 389.8265844931758 950.5661295354504 385.6333785823389Q946.9302484608639 381.44017267150195 946.9302484608639 375.01766741566314ZM1027.7688889950996 426.716180797374Q1019.3559378955092 426.716180797374 1014.764642815922 432.74059688446255Q1010.1998870142513 438.765012971551 1010.1998870142513 451.18539503656166Q1010.1998870142513 463.60577710157224 1014.8707999275886 471.142932029912Q1019.5417128409259 478.6800869582518 1028.5385280546839 478.6800869582518L1028.5385280546839 478.6800869582518Q1033.129823134271 478.6800869582518 1037.5088039905245 475.81384494324936Q1041.9143241246952 472.9476029282469 1044.1967020255306 470.08136091324445L1044.1967020255306 470.08136091324445L1046.293304980949 467.0293439528252L1055.847445030957 476.9815731715837Q1055.2901201947066 477.9369871765845 1054.4143240234557 479.63550096325264Q1053.5650671301219 481.36055402783745 1050.221118112619 485.76607416200784Q1046.8771690951162 490.1450550182616 1043.1616701867797 493.4890040357645Q1039.4196320005262 496.8329530532673 1033.5013730251046 499.61957723451974Q1027.583114049683 502.3796621378554 1021.080990960094 502.3796621378554L1021.080990960094 502.3796621378554Q1006.7497808850818 502.3796621378554 997.7795049492407 490.7289191324288Q988.782689735483 479.07817612700217 988.782689735483 460.34144591781944L988.782689735483 460.34144591781944Q988.782689735483 437.0399599069662 1002.3442607509113 419.4444186482011Q1015.9323710442562 401.8754166673528 1034.0852371392716 401.8754166673528L1034.0852371392716 401.8754166673528Q1039.6054069459433 401.8754166673528 1045.1521160305313 403.4943126202709Q1050.6988251151192 405.1132085731889 1056.4313091451243 408.5633147023585L1056.4313091451243 408.5633147023585L1043.0555130751127 432.0771149365453Q1036.1818400946902 426.716180797374 1027.7688889950996 426.716180797374ZM1087.5884214193175 500.28305918243694Q1076.3092283047245 500.28305918243694 1069.1436232672186 493.1174541449308Q1061.9780182297122 485.95184910742466 1061.9780182297122 473.82339909949764Q1061.9780182297122 461.6949490915706 1073.0448971209717 452.8042909894797Q1084.138315290148 443.91363288738876 1100.0088034843284 443.91363288738876L1100.0088034843284 443.91363288738876L1112.986510385589 443.91363288738876L1112.986510385589 440.67584098155265Q1112.986510385589 431.3074758769613 1109.164854365586 427.85736974779167Q1105.3431983455826 424.43380289653874 1094.8336442905738 424.43380289653874L1094.8336442905738 424.43380289653874Q1090.45466343432 424.43380289653874 1084.4302473472317 426.23847379487364Q1078.4058312601428 428.0431446932085 1070.9482941655533 431.86480071321176L1070.9482941655533 431.86480071321176L1065.401585080965 416.7904908565322Q1073.6287612351389 411.05800682652733 1085.3856613522323 406.46671174694006Q1097.1425614693258 401.8754166673528 1104.7858735093323 401.8754166673528L1104.7858735093323 401.8754166673528Q1134.7752575551913 401.8754166673528 1134.7752575551913 430.90938670821095L1134.7752575551913 430.90938670821095L1134.7752575551913 468.38284712657634Q1134.7752575551913 479.07817612700217 1141.463155590197 492.26819725159675L1141.463155590197 492.26819725159675L1121.2136865397629 500.8669232966041Q1116.436616514759 491.6843331374296 1114.127699336007 484.4125709882567L1114.127699336007 484.4125709882567Q1103.6181452809979 500.28305918243694 1087.5884214193175 500.28305918243694L1087.5884214193175 500.28305918243694ZM1095.6032833501577 480.803229191587L1095.6032833501577 480.803229191587Q1103.2465953901642 480.803229191587 1112.986510385589 472.9476029282469L1112.986510385589 472.9476029282469L1112.986510385589 460.1556709724026Q1102.8750454993306 457.87329307156733 1096.5586973551585 457.87329307156733L1096.5586973551585 457.87329307156733Q1084.5098651809817 457.87329307156733 1084.5098651809817 468.56862207199316L1084.5098651809817 468.56862207199316Q1084.5098651809817 474.11533115658125 1087.5884214193175 477.4592801740841Q1090.6404383797367 480.803229191587 1095.6032833501577 480.803229191587ZM1158.0767435660446 357.15673337773126L1184.271010869817 352.3796633527271L1181.776318745648 450.60153092239443L1183.8729217010664 495.50598915743285L1158.0767435660446 500.28305918243694L1160.3856607447965 453.8393228282306L1158.0767435660446 357.15673337773126ZM1197.8325818852452 482.89983214700544L1212.7476560744244 462.2522739278211Q1228.9896941594384 478.494312012835 1245.2317322444524 478.494312012835L1245.2317322444524 478.494312012835Q1253.6181440661262 478.494312012835 1258.6871461482137 474.59303815908163Q1263.7561482303013 470.6652250274116 1263.7561482303013 464.45503399490633Q1263.7561482303013 458.244842962401 1257.652114309463 453.9454799398973Q1251.5215411107079 449.64611691739367 1242.8431972319504 446.4083250115575Q1234.1383140752762 443.14399382780476 1225.539588030269 439.03040575071793Q1216.9408619852616 434.94335695154774 1210.836828064423 427.3000449115412Q1204.7062548656677 419.6567328715347 1204.7062548656677 408.74908964777535L1204.7062548656677 408.74908964777535Q1204.7062548656677 391.5516375577606 1219.03746494068 379.05163765899994Q1233.3686750156921 366.52509848232256 1253.0608192298755 366.52509848232256L1253.0608192298755 366.52509848232256Q1262.0310951657168 366.52509848232256 1270.4440462653074 368.4359264923242Q1278.8569973648978 370.34675450232584 1286.686084350321 373.98263557691223L1286.686084350321 373.98263557691223L1273.6818381711432 401.8754166673528Q1268.3474433098886 397.6822107565159 1259.0852353169644 394.1259475156795Q1249.796488046123 390.59622355275985 1242.8431972319504 390.59622355275985Q1235.863367139861 390.59622355275985 1231.5640041173574 393.9401725702627Q1227.2646410948537 397.2841215877655 1227.2646410948537 402.8308306723536Q1227.2646410948537 408.3775397569417 1233.3686750156921 412.67690277944536Q1239.4992482144476 416.976265801949 1248.177592093205 420.2140577077851Q1256.882475249879 423.4783888915379 1265.5608191286365 427.3796627452913Q1274.2657022853105 431.3074758769613 1280.369736206149 438.95078791696784Q1286.5003094049043 446.59409995697433 1286.5003094049043 457.47520390281704L1286.5003094049043 457.47520390281704Q1286.5003094049043 475.4422950524157 1272.169099329892 488.9242482340939Q1257.8378892548799 502.3796621378554 1238.7296091548635 502.3796621378554L1238.7296091548635 502.3796621378554Q1224.398399079851 502.3796621378554 1213.304980910675 495.50598915743285L1213.304980910675 495.50598915743285Q1203.5650659152502 489.5877301820111 1199.55763494983 484.9964351024239L1199.55763494983 484.9964351024239L1197.8325818852452 482.89983214700544ZM1296.8240885144965 460.34144591781944Q1296.8240885144965 435.89877095654856 1309.9875703611742 418.88709381195065Q1323.177591485769 401.8754166673528 1340.852750578284 401.8754166673528Q1358.527909670799 401.8754166673528 1368.373981777891 413.3403847273626Q1378.220053884983 424.8053527873724 1378.220053884983 443.72785794197193L1378.220053884983 443.72785794197193Q1378.220053884983 468.9401719628268 1365.5077397628884 485.6599170503411Q1352.7954256407943 502.3796621378554 1333.501370595361 502.3796621378554L1333.501370595361 502.3796621378554Q1317.6308824011808 502.3796621378554 1307.2274854578386 490.4369870753452Q1296.8240885144965 478.494312012835 1296.8240885144965 460.34144591781944L1296.8240885144965 460.34144591781944ZM1356.8028566062144 453.65354788281377L1356.8028566062144 453.65354788281377Q1356.8028566062144 425.94654173779 1337.9068907295314 425.94654173779L1337.9068907295314 425.94654173779Q1318.214746515348 425.94654173779 1318.214746515348 451.92849481822896L1318.214746515348 451.92849481822896Q1318.214746515348 465.5166051115739 1323.7614555999362 473.15991715158043Q1329.3081646845244 480.803229191587 1338.384597732032 480.803229191587Q1347.4610307795397 480.803229191587 1352.131943692877 473.82339909949764Q1356.8028566062144 466.84356900740835 1356.8028566062144 453.65354788281377ZM1417.5778030354331 500.28305918243694L1417.5778030354331 500.28305918243694Q1407.254023925841 500.28305918243694 1400.858057947919 493.4890040357645Q1394.4620919699964 486.7214881670087 1394.4620919699964 475.62806999783254L1394.4620919699964 475.62806999783254L1395.6032809204144 453.65354788281377L1393.5066779649956 407.79367564277453L1419.1170811546008 403.01660561777044L1416.6223890304323 461.11108497740344Q1416.6223890304323 469.33826113157716 1419.5947881571014 473.15991715158043Q1422.5406480058537 476.9815731715837 1429.0427710954427 476.9815731715837Q1435.5448941850318 476.9815731715837 1447.0098622450414 470.47945008199474L1447.0098622450414 470.47945008199474L1447.0098622450414 459.014482021985L1444.913259289623 408.74908964777535L1470.7094374246453 403.97201962277126L1468.400520245893 451.74271987281213L1468.58629519131 467.4274331215755Q1468.58629519131 479.63550096325264 1474.902643335482 492.0558830282632L1474.902643335482 492.0558830282632L1455.0247241758816 500.8669232966041Q1448.734915309626 488.4465412315935 1447.381412135875 480.9890041370038L1447.381412135875 480.9890041370038Q1430.1839600458607 500.28305918243694 1417.5778030354331 500.28305918243694ZM1547.514107715544 451.92849481822896Q1547.514107715544 438.765012971551 1545.231729814709 434.35949283738057Q1542.9228126359567 429.9539727032101 1534.5098615363663 429.9539727032101Q1526.1234497146925 429.9539727032101 1515.4015814363502 436.64187073821586L1515.4015814363502 436.64187073821586L1515.4015814363502 450.60153092239443L1517.524723669685 495.50598915743285L1491.9143204800798 500.28305918243694L1494.1966983809152 453.8393228282306Q1493.427059321331 428.255458916542 1490.0034924700785 407.97945058819136L1490.0034924700785 407.97945058819136L1513.1192035355148 403.01660561777044Q1514.4461674313493 414.1100237869466 1515.0300315455165 424.61957784195556L1515.0300315455165 424.61957784195556Q1517.8962735605187 420.7979218219523 1521.5321546351051 417.0558836356991Q1525.1680357096916 413.3403847273626 1532.9971226951152 408.66947181402526Q1540.8262096805383 403.97201962277126 1549.5310928372128 403.97201962277126Q1558.2094367159698 403.97201962277126 1564.1276956913916 410.7660747694437Q1570.07249394473 417.5335906381995 1570.07249394473 429.21087292154283L1570.07249394473 429.21087292154283L1568.9047657163956 450.60153092239443L1571.027907949731 496.46140316243367L1545.231729814709 501.23847318743776L1547.514107715544 451.92849481822896ZM1642.4716441014584 481.5463289732543L1642.4716441014584 481.5463289732543Q1627.583109190196 500.28305918243694 1616.6754659664366 500.28305918243694L1616.6754659664366 500.28305918243694Q1603.1138949510082 500.28305918243694 1594.4355510722507 489.1896410132608Q1585.7306679155768 478.12276212200135 1585.7306679155768 460.7395350865698L1585.7306679155768 460.7395350865698Q1585.7306679155768 436.8541849615494 1599.0003068739215 420.399832653202Q1612.2964851101829 403.97201962277126 1631.590540155616 403.97201962277126L1631.590540155616 403.97201962277126L1642.2858691560418 405.51129774193925L1642.2858691560418 401.8754166673528L1640.0034912552064 357.15673337773126L1666.1712192810623 352.3796633527271L1663.7030664348104 450.60153092239443L1663.7030664348104 467.4274331215755Q1663.7030664348104 478.89240118158534 1669.4355504648152 493.78093609284804L1669.4355504648152 493.78093609284804L1648.787992245631 502.3796621378554Q1643.2412831610427 490.91469407784564 1642.4716441014584 481.5463289732543ZM1607.1213259164283 450.78730586781126Q1607.1213259164283 463.0219129874051 1611.6330031622656 469.8955859678276Q1616.1181411301864 476.7692589482502 1624.6107100635268 476.7692589482502Q1633.1298182747842 476.7692589482502 1642.2858691560418 469.8955859678276L1642.2858691560418 469.8955859678276L1642.2858691560418 428.62700880737566Q1630.8209010960322 426.3446309065404 1625.274192011444 426.3446309065404L1625.274192011444 426.3446309065404Q1616.6754659664366 426.3446309065404 1611.8983959414327 432.44866482737893Q1607.1213259164283 438.5526987482175 1607.1213259164283 450.78730586781126Z " fill="black" transform="matrix(0.5241291917968337,0,0,0.5241291917968336,0,75.99781133235464)"/></g></svg>